<svg width="2061" height="632" viewBox="0 0 2061 632" fill="none" xmlns="http://www.w3.org/2000/svg">
<path d="M701.489 216.794H861.863V270.252H760.293V369.15H841.015V422.607H760.293V537.542H861.863V591H701.489V216.794ZM895.692 216.794H982.294C1011.52 216.794 1033.44 224.635 1048.05 240.316C1062.66 255.997 1069.96 278.984 1069.96 309.277V346.163C1069.96 376.455 1062.66 399.442 1048.05 415.123C1033.44 430.804 1011.52 438.645 982.294 438.645H954.496V591H895.692V216.794ZM982.294 385.187C991.916 385.187 999.044 382.514 1003.68 377.168C1008.67 371.822 1011.16 362.735 1011.16 349.905V305.535C1011.16 292.705 1008.67 283.617 1003.68 278.271C999.044 272.925 991.916 270.252 982.294 270.252H954.496V385.187H982.294ZM1101.9 216.794H1160.71V591H1101.9V216.794ZM1204.75 216.794H1294.56C1323.78 216.794 1345.7 224.635 1360.31 240.316C1374.92 255.997 1382.23 278.984 1382.23 309.277V498.518C1382.23 528.811 1374.92 551.798 1360.31 567.479C1345.7 583.16 1323.78 591 1294.56 591H1204.75V216.794ZM1293.49 537.542C1303.11 537.542 1310.41 534.691 1315.4 528.989C1320.75 523.287 1323.42 514.021 1323.42 501.191V306.604C1323.42 293.774 1320.75 284.508 1315.4 278.806C1310.41 273.103 1303.11 270.252 1293.49 270.252H1263.55V537.542H1293.49ZM1506.92 596.346C1478.05 596.346 1455.95 588.149 1440.63 571.755C1425.3 555.361 1417.64 532.196 1417.64 502.26V305.535C1417.64 275.598 1425.3 252.433 1440.63 236.039C1455.95 219.645 1478.05 211.449 1506.92 211.449C1535.78 211.449 1557.88 219.645 1573.2 236.039C1588.53 252.433 1596.19 275.598 1596.19 305.535V502.26C1596.19 532.196 1588.53 555.361 1573.2 571.755C1557.88 588.149 1535.78 596.346 1506.92 596.346ZM1506.92 542.888C1527.23 542.888 1537.39 530.593 1537.39 506.002V301.793C1537.39 277.202 1527.23 264.907 1506.92 264.907C1486.6 264.907 1476.45 277.202 1476.45 301.793V506.002C1476.45 530.593 1486.6 542.888 1506.92 542.888ZM1635.96 216.794H1719.89L1757.31 484.619H1758.38L1795.8 216.794H1879.73V591H1824.13V307.673H1823.06L1780.3 591H1731.11L1688.35 307.673H1687.28V591H1635.96V216.794ZM1923.61 534.335H1980.27V591H1923.61V534.335Z" fill="#F5F4DC"/>
<path d="M130.329 630.339C120.686 627.02 114.521 621.408 109.937 611.607L107.407 606.311L107.17 473.525C107.012 376.465 107.17 339.474 107.803 335.997C109.937 325.01 116.576 316.237 126.614 311.336L132.621 308.333L305.322 308.096C494.542 307.938 481.896 307.621 490.037 312.364C495.017 315.288 501.261 322.402 504.027 328.33L506.556 333.625L506.793 468.388C506.951 601.964 506.951 603.229 505.371 608.445C502.209 618.799 493.831 627.178 483.319 630.418C478.418 631.999 475.415 631.999 306.666 631.999C135.862 631.92 135.071 631.92 130.329 630.339ZM429.888 470.759V387.372H306.982H184.076L183.838 469.968C183.759 515.416 183.838 553.039 184.076 553.592C184.313 554.382 209.368 554.54 307.14 554.382L429.888 554.145V470.759Z" fill="#FBF9E4"/>
<path d="M494.303 300.429C493.196 299.797 489.56 298.374 486.162 297.268C480.076 295.292 479.759 295.292 452.333 295.292C435.339 295.292 424.748 294.976 424.748 294.501C424.748 293.237 450.041 235.775 450.989 234.748C451.147 234.589 458.419 237.435 467.034 241.15C475.728 244.786 483.949 247.947 485.292 248.263C490.272 249.291 491.932 244.311 488.375 239.174C484.739 233.957 472.33 224.235 463.635 219.888C461.343 218.703 459.525 217.517 459.683 217.201C459.842 216.806 464.9 207.084 470.907 195.544L481.894 174.44L490.43 178.788C502.049 184.558 506.159 184.479 506.159 178.551C506.159 175.231 504.104 173.176 495.725 168.196C492.327 166.141 489.56 164.086 489.56 163.533C489.56 162.11 497.939 156.42 502.76 154.602C520.149 148.12 541.963 156.657 551.527 173.729C558.562 186.296 558.404 197.757 551.211 212.933L548.129 219.493L544.73 217.359C535.798 211.668 515.327 203.606 509.873 203.606C506.396 203.606 504.578 205.345 504.578 208.506C504.578 211.668 506.238 213.091 523.863 225.263L538.565 235.459L536.035 239.885C533.111 245.023 519.595 267.154 512.956 277.666L508.372 284.859L498.255 279.642C489.323 274.9 487.98 274.425 485.925 275.137C482.921 276.243 481.656 279.642 483.237 282.408C483.87 283.594 487.268 286.518 490.746 288.89C494.224 291.34 497.939 293.948 498.966 294.659L500.863 296.003L498.966 298.769C496.832 302.01 496.911 301.931 494.303 300.429Z" fill="#FBF9E4"/>
<path d="M132.461 277.431L132.698 259.647L165.499 243.76C209.998 222.341 263.666 196.495 264.931 195.942C265.642 195.625 265.879 201.553 265.879 224.159V252.85L262.797 256.17C256.236 263.283 254.023 270.634 254.023 285.177V295.294H193.163H132.303L132.461 277.431Z" fill="#FBF9E4"/>
<path d="M266.672 285.49C266.672 271.816 269.28 265.255 276.315 261.303C282.875 257.668 290.147 259.327 294.178 265.413C296.312 268.733 296.312 268.733 296.075 281.3C295.995 288.256 295.679 294.263 295.442 294.579C295.205 294.974 288.645 295.29 280.82 295.29H266.672V285.49Z" fill="#FBF9E4"/>
<path d="M303.581 292.367C304.687 280.116 307.296 273.398 312.117 270.078C320.1 264.624 331.087 269.208 333.774 279.088C334.248 280.827 334.643 285.174 334.643 288.81V295.291H318.994H303.344L303.581 292.367Z" fill="#FBF9E4"/>
<path d="M345.709 287.942C345.709 281.46 345.946 280.038 347.922 276.244C352.664 266.838 363.019 264.783 369.816 271.897C373.61 275.77 375.586 281.223 376.297 289.522L376.771 295.292H361.201H345.709V287.942Z" fill="#FBF9E4"/>
<path d="M384.914 294.342C384.36 292.682 383.333 277.743 383.491 274.029C383.57 272.053 384.439 268.891 385.467 266.915C391.632 254.901 406.887 257.351 412.024 271.104C413.368 274.819 413.684 277.348 413.684 285.41V295.29H399.457C388.708 295.29 385.072 295.053 384.914 294.342Z" fill="#FBF9E4"/>
<path d="M113.65 289.124L108.75 288.887L108.276 285.962C108.039 284.381 107.801 281.062 107.801 278.69C107.801 270.945 105.43 253.398 103.138 244.387C99.5024 230.081 96.4989 225.339 86.4609 218.067C79.3473 212.93 71.8386 204.393 68.756 197.912C64.8041 189.692 63.3023 182.658 63.3023 172.382C63.3023 158.788 67.0962 147.485 75.3953 136.578C77.1342 134.285 78.5569 132.072 78.5569 131.598C78.5569 131.124 75.7115 128.041 72.1547 124.801C51.1303 104.962 44.4909 78.7998 55.2403 58.2496C58.56 51.9265 63.0652 46.947 68.9932 43.1531L73.1822 40.3867L72.708 36.1976C71.1272 22.6819 77.9246 9.08711 89.1482 3.63339C101.715 -2.53168 113.729 -0.871855 126.692 8.77095L131.75 12.4858L136.177 10.4308C141.867 7.82248 146.373 6.874 153.249 6.79496C165.342 6.79496 175.38 11.1421 184.944 20.5478C195.456 30.981 200.436 42.8369 201.542 60.1465L202.095 69.2361L206.206 71.6073C214.347 76.2706 214.109 76.4287 197.827 76.1915L183.284 75.9544L182.81 64.0985C182.257 50.6618 181.229 45.6823 178.384 42.7579C174.748 39.2011 168.662 40.8609 167.476 45.7614C167.239 46.7099 167.555 51.6893 168.267 56.8269C168.899 61.9645 169.452 68.4457 169.452 71.2911V76.3496H163.998C159.73 76.3496 158.071 76.7448 156.016 78.0885C150.799 81.6453 150.167 83.3841 149.692 93.9754L149.297 103.618L147.084 98.8758C145.819 96.2675 142.105 87.7313 138.785 79.9064C135.544 72.0815 131.988 64.8889 131.039 63.9404C129.063 61.9645 125.348 61.5693 122.819 62.9129C120.211 64.2566 119.499 68.3666 120.922 73.109C122.345 77.9304 131.513 99.3501 135.781 107.886C137.362 110.969 138.627 113.656 138.627 113.893C138.627 114.13 135.781 114.289 132.383 114.289C125.348 114.289 116.338 112.787 110.963 110.653C104.798 108.282 94.9181 101.247 90.4128 95.9514C84.722 89.3911 84.2478 89.075 80.4539 88.9959C76.3438 88.9959 74.6049 90.8138 74.6049 95.082C74.6049 102.275 86.777 114.368 100.767 121.007C110.173 125.433 117.681 127.093 130.881 127.488L142.579 127.883L137.836 136.736C135.228 141.557 130.012 151.437 126.139 158.709C122.345 166.059 119.025 171.987 118.709 171.987C118.393 171.987 113.888 167.877 108.75 162.898C100.293 154.757 99.0281 153.808 96.4989 153.808C94.4438 153.808 93.2582 154.361 92.0727 155.863C88.5159 160.448 90.4919 164.795 100.214 174.121C104.166 177.994 110.094 182.895 113.334 185.108L119.262 189.06L119.499 238.776C119.578 266.123 119.42 288.649 119.104 288.887C118.709 289.124 116.259 289.282 113.65 289.124Z" fill="#FBF9E4"/>
<path d="M338.203 262.884C337.412 262.014 335.278 260.434 333.381 259.327L329.982 257.351L331.168 254.031C332.986 248.894 335.989 244.152 338.835 242.017C348.399 234.746 363.574 233.56 374.324 239.33C378.829 241.701 384.441 247.155 384.441 249.052C384.441 249.605 383.018 250.949 381.279 252.135C379.54 253.241 377.327 255.375 376.379 256.877L374.64 259.485L370.293 257.509C361.677 253.557 350.691 255.375 343.182 262.014C341.601 263.358 340.179 264.465 340.02 264.465C339.783 264.465 338.993 263.753 338.203 262.884Z" fill="#FBF9E4"/>
<path d="M301.844 255.372C299.631 253.158 297.023 250.787 295.996 250.155L294.02 248.89L296.154 246.124C298.999 242.409 303.583 239.327 308.247 237.904C311.724 236.876 326.742 236.323 326.742 237.193C326.742 237.43 325.872 239.01 324.766 240.67C322.79 243.832 319.628 252.368 319.628 254.581C319.628 255.451 318.759 255.767 316.704 255.767C315.044 255.767 311.882 256.636 309.748 257.585L305.796 259.482L301.844 255.372Z" fill="#FBF9E4"/>
<path d="M416.768 255.532C413.053 251.184 406.888 247.865 401.514 247.311C397.641 246.916 397.245 246.679 396.376 244.15C395.823 242.648 393.056 238.933 390.211 235.93C381.596 226.761 371.558 223.046 357.093 223.521C349.348 223.758 348.873 223.679 348.873 222.177C348.873 220.912 349.901 220.28 353.853 219.173C366.736 215.38 404.201 200.204 407.521 197.438C412.105 193.565 409.576 189.059 402.146 188.111C386.654 186.214 367.369 190.482 352.667 199.018L348.873 201.152V186.293V171.434L342.076 160.447C338.361 154.44 334.962 148.828 334.567 148.117C333.303 145.746 344.447 115.158 354.88 92.5523C373.85 51.5309 395.586 25.685 418.191 17.3859C423.487 15.4099 425.542 15.0938 432.26 15.0938C439.611 15.0938 440.559 15.2518 445.459 17.702C454.154 21.9702 459.924 30.0322 463.718 43.1527C466.879 53.9811 467.67 63.3868 467.195 82.5934C466.405 113.103 460.714 143.138 447.514 186.214C440.638 208.74 422.064 258.14 420.325 258.693C419.93 258.772 418.349 257.349 416.768 255.532ZM368.08 162.502C383.651 156.653 420.404 141.557 422.617 140.134C426.49 137.605 425.7 133.1 421.115 131.203C410.445 126.776 385.548 130.886 371.004 139.502C360.808 145.588 351.245 156.258 351.245 161.633C351.245 164.162 353.379 166.454 355.75 166.454C356.856 166.454 362.389 164.715 368.08 162.502ZM381.754 108.439C391.95 104.962 425.937 90.8135 435.421 86.0711C442.377 82.5934 443.721 81.4078 443.721 78.6414C443.721 73.741 438.662 72.0811 425.542 72.5554C410.287 73.1877 395.111 78.4043 383.888 86.9405C375.826 93.0266 368.633 103.302 369.977 106.938C371.4 110.969 373.613 111.285 381.754 108.439Z" fill="#FBF9E4"/>
<path d="M278.525 216.246V185.421L292.832 156.887C300.656 141.159 307.217 128.433 307.296 128.591C307.454 128.749 313.777 139.024 321.365 151.434L335.197 173.96L335.671 198.699C335.908 212.215 335.908 223.36 335.592 223.36C335.276 223.28 332.984 220.04 330.533 215.93C324.289 205.892 313.224 191.19 310.457 189.294C307.533 187.397 306.11 187.397 303.423 189.531C301.368 191.111 301.289 191.428 301.605 196.802C302.079 203.679 304.766 210.397 309.983 218.222L313.856 223.834L308.323 225.177C305.241 225.889 300.814 227.47 298.443 228.576C293.069 231.184 285.718 238.377 283.347 243.356C282.161 245.886 281.055 247.071 280.027 247.071C278.604 247.071 278.525 246.044 278.525 216.246Z" fill="#FBF9E4"/>
<path d="M132.303 209.774L132.382 174.76L147.162 147.096L161.943 119.432L229.363 119.195C272.123 119.116 296.705 119.274 296.705 119.827C296.705 120.222 289.828 134.133 281.371 150.811L266.037 181.083L247.147 190.093C236.793 194.994 206.995 209.379 180.991 221.867C154.908 234.434 133.33 244.709 132.935 244.709C132.619 244.709 132.303 228.981 132.303 209.774Z" fill="#FBF9E4"/>
<path d="M552.793 155.789L550.896 153.813L552.872 151.6C553.979 150.414 559.591 144.249 565.282 137.847C585.516 115.321 604.801 100.066 613.1 100.066C616.183 100.066 618.396 102.596 618.396 106.311C618.396 116.744 589.231 141.799 562.515 154.366C558.484 156.184 555.086 157.765 554.927 157.765C554.769 157.765 553.821 156.896 552.793 155.789Z" fill="#FBF9E4"/>
<path d="M540.939 145.278C540.939 143.697 553.032 111.607 558.012 100.304C568.761 75.407 580.459 57.8602 587.968 55.0148C593.659 52.8808 598.401 55.4891 599.191 61.1009C600.14 68.2934 592.71 83.9432 580.301 100.937C570.5 114.373 541.098 147.57 540.939 145.278Z" fill="#FBF9E4"/>
<path d="M528.842 138.08C527.34 130.729 526.55 115.87 526.945 104.409C527.972 78.1677 534.928 47.4214 541.409 41.0192C545.44 36.9092 548.839 37.9367 552.079 43.9437C554.53 48.686 552.87 67.1812 548.365 85.4393C544.65 100.457 534.216 131.203 530.502 138.396L529.316 140.609L528.842 138.08Z" fill="#FBF9E4"/>
<path d="M163.286 97.9293L163.523 88.6027L230.311 88.3656C267.065 88.2865 297.89 88.3656 298.918 88.6027C300.577 88.9979 300.656 89.314 300.656 98.0874V107.177H231.892H163.049L163.286 97.9293Z" fill="#FBF9E4"/>
</svg>
