<svg xmlns="http://www.w3.org/2000/svg" viewBox="0 0 190 30" fill="none">
  <g transform="translate(3 3)" stroke="#111" stroke-width="2" stroke-linecap="round" stroke-linejoin="round">
    <path d="M11 21.73a2 2 0 0 0 2 0l7-4A2 2 0 0 0 21 16V8a2 2 0 0 0-1-1.73l-7-4a2 2 0 0 0-2 0l-7 4A2 2 0 0 0 3 8v8a2 2 0 0 0 1 1.73z"/>
    <path d="M12 22V12"/>
    <path d="m3.3 7 7.703 4.734a2 2 0 0 0 1.994 0L20.7 7"/>
    <path d="m7.5 4.27 9 5.15"/>
  </g>
  <text x="36" y="22" font-family="Arial, Helvetica, sans-serif" font-size="20" font-weight="700" textLength="150" lengthAdjust="spacingAndGlyphs" fill="#111">EXPEDITOO</text>
</svg>
